<svg xmlns="http://www.w3.org/2000/svg" width="20.193" height="22.11" viewBox="0 0 20.193 22.11">
  <g id="box_2_" data-name="box (2)" transform="translate(1.096 1.032)">
    <path id="Path_14" data-name="Path 14" d="M21,16V8a2,2,0,0,0-1-1.73l-7-4a2,2,0,0,0-2,0l-7,4A2,2,0,0,0,3,8v8a2,2,0,0,0,1,1.73l7,4a2,2,0,0,0,2,0l7-4A2,2,0,0,0,21,16Z" transform="translate(-3 -2.002)" fill="none" stroke="#1c6fce" strokeLinecap="round" strokeLinejoin="round" strokeWidth="2"/>
    <path id="Path_15" data-name="Path 15" d="M3.27,6.96,12,12.01l8.73-5.05" transform="translate(-3 -2.002)" fill="none" stroke="#1c6fce" strokeLinecap="round" strokeLinejoin="round" strokeWidth="2"/>
    <line id="Line_20" data-name="Line 20" y1="10.08" transform="translate(9 9.998)" fill="none" stroke="#1c6fce" strokeLinecap="round" strokeLinejoin="round" strokeWidth="2"/>
  </g>
</svg>
