<svg id="Icon_awesome-user-circle" data-name="Icon awesome-user-circle" xmlns="http://www.w3.org/2000/svg" width="106" height="106" viewBox="0 0 106 106">
  <path id="Icon_awesome-user-circle-2" data-name="Icon awesome-user-circle" d="M53,.563a53,53,0,1,0,53,53A52.991,52.991,0,0,0,53,.563Zm0,20.516A18.806,18.806,0,1,1,34.194,39.885,18.807,18.807,0,0,1,53,21.079Zm0,73.516A40.953,40.953,0,0,1,21.692,80.02a23.827,23.827,0,0,1,21.05-12.78,5.229,5.229,0,0,1,1.517.235A28.3,28.3,0,0,0,53,68.95a28.188,28.188,0,0,0,8.741-1.475,5.229,5.229,0,0,1,1.517-.235,23.827,23.827,0,0,1,21.05,12.78A40.953,40.953,0,0,1,53,94.595Z" transform="translate(0 -0.563)" fill="#e2e2e2"/>
</svg>
