<svg xmlns="http://www.w3.org/2000/svg" width="12" height="12" viewBox="0 0 12 12">
  <g id="log-out_1_" data-name="log-out (1)" transform="translate(-2 -2)">
    <path id="Path_8" data-name="Path 8" d="M6.2,14H3.8A1.8,1.8,0,0,1,2,12.2V3.8A1.8,1.8,0,0,1,3.8,2H6.2a.6.6,0,0,1,0,1.2H3.8a.6.6,0,0,0-.6.6v8.4a.6.6,0,0,0,.6.6H6.2a.6.6,0,0,1,0,1.2Z" fill="#707070"/>
    <path id="Path_9" data-name="Path 9" d="M15.6,13.2a.6.6,0,0,1-.424-1.024L17.751,9.6,15.176,7.024a.6.6,0,0,1,.849-.849l3,3a.6.6,0,0,1,0,.849l-3,3A.6.6,0,0,1,15.6,13.2Z" transform="translate(-5.2 -1.6)" fill="#707070"/>
    <path id="Line_8" data-name="Line 8" d="M6.8.2H-.4A.6.6,0,0,1-1-.4.6.6,0,0,1-.4-1H6.8a.6.6,0,0,1,.6.6A.6.6,0,0,1,6.8.2Z" transform="translate(6.6 8.4)" fill="#707070"/>
  </g>
</svg>
