<svg id="Media_Icon" data-name="Media Icon" xmlns="http://www.w3.org/2000/svg" width="20" height="20" viewBox="0 0 20 20">
  <path id="Rectangle_7" data-name="Rectangle 7" d="M1.891-1H16.109A2.894,2.894,0,0,1,19,1.891V16.109A2.894,2.894,0,0,1,16.109,19H1.891A2.894,2.894,0,0,1-1,16.109V1.891A2.894,2.894,0,0,1,1.891-1ZM16.109,17.182a1.074,1.074,0,0,0,1.073-1.073V1.891A1.074,1.074,0,0,0,16.109.818H1.891A1.074,1.074,0,0,0,.818,1.891V16.109a1.074,1.074,0,0,0,1.073,1.073Z" transform="translate(1 1)" fill="#fff"/>
  <path id="Line_1" data-name="Line 1" d="M0,19a.958.958,0,0,1-1-.909V-.091A.958.958,0,0,1,0-1,.958.958,0,0,1,1-.091V18.091A.958.958,0,0,1,0,19Z" transform="translate(5.5 1)" fill="#fff"/>
  <path id="Line_2" data-name="Line 2" d="M0,19a.958.958,0,0,1-1-.909V-.091A.958.958,0,0,1,0-1,.958.958,0,0,1,1-.091V18.091A.958.958,0,0,1,0,19Z" transform="translate(14.5 1)" fill="#fff"/>
  <path id="Line_3" data-name="Line 3" d="M18.091,1H-.091A.958.958,0,0,1-1,0,.958.958,0,0,1-.091-1H18.091A.958.958,0,0,1,19,0,.958.958,0,0,1,18.091,1Z" transform="translate(1 10)" fill="#fff"/>
  <path id="Line_4" data-name="Line 4" d="M4.571,1H-.071A.966.966,0,0,1-1,0,.966.966,0,0,1-.071-1H4.571A.966.966,0,0,1,5.5,0,.966.966,0,0,1,4.571,1Z" transform="translate(1 5.5)" fill="#fff"/>
  <path id="Line_5" data-name="Line 5" d="M4.571,1H-.071A.966.966,0,0,1-1,0,.966.966,0,0,1-.071-1H4.571A.966.966,0,0,1,5.5,0,.966.966,0,0,1,4.571,1Z" transform="translate(1 14.5)" fill="#fff"/>
  <path id="Line_6" data-name="Line 6" d="M4.571,1H-.071A.966.966,0,0,1-1,0,.966.966,0,0,1-.071-1H4.571A.966.966,0,0,1,5.5,0,.966.966,0,0,1,4.571,1Z" transform="translate(14.5 14.5)" fill="#fff"/>
  <path id="Line_7" data-name="Line 7" d="M4.571,1H-.071A.966.966,0,0,1-1,0,.966.966,0,0,1-.071-1H4.571A.966.966,0,0,1,5.5,0,.966.966,0,0,1,4.571,1Z" transform="translate(14.5 5.5)" fill="#fff"/>
</svg>
