<svg id="Online_Store" data-name="Online Store" xmlns="http://www.w3.org/2000/svg" width="20" height="22" viewBox="0 0 20 22">
  <path id="Path_6" data-name="Path 6" d="M6,1H18a1,1,0,0,1,.8.4l3,4A1,1,0,0,1,22,6V20a3,3,0,0,1-3,3H5a3,3,0,0,1-3-3V6a1,1,0,0,1,.2-.6l3-4A1,1,0,0,1,6,1ZM17.5,3H6.5L4,6.333V20a1,1,0,0,0,1,1H19a1,1,0,0,0,1-1V6.333Z" transform="translate(-2 -1)" fill="#fff"/>
  <path id="Line_1" data-name="Line 1" d="M18,1H0A1,1,0,0,1-1,0,1,1,0,0,1,0-1H18a1,1,0,0,1,1,1A1,1,0,0,1,18,1Z" transform="translate(1 5)" fill="#fff"/>
  <path id="Path_7" data-name="Path 7" d="M12,15a5.006,5.006,0,0,1-5-5,1,1,0,0,1,2,0,3,3,0,0,0,6,0,1,1,0,0,1,2,0A5.006,5.006,0,0,1,12,15Z" transform="translate(-2 -1)" fill="#fff"/>
</svg>
