<svg xmlns="http://www.w3.org/2000/svg" width="12" height="13.333" viewBox="0 0 12 13.333">
  <g id="user" transform="translate(-3 -2)">
    <path id="Path_8" data-name="Path 8" d="M14.333,19.333a.667.667,0,0,1-.667-.667V17.333a2,2,0,0,0-2-2H6.333a2,2,0,0,0-2,2v1.333a.667.667,0,1,1-1.333,0V17.333A3.337,3.337,0,0,1,6.333,14h5.333A3.337,3.337,0,0,1,15,17.333v1.333A.667.667,0,0,1,14.333,19.333Z" transform="translate(0 -4)" fill="#707070"/>
    <path id="Ellipse_4" data-name="Ellipse 4" d="M2.333-1A3.333,3.333,0,1,1-1,2.333,3.337,3.337,0,0,1,2.333-1Zm0,5.333a2,2,0,1,0-2-2A2,2,0,0,0,2.333,4.333Z" transform="translate(6.667 3)" fill="#707070"/>
  </g>
</svg>
