<svg id="shopping-cart-add" xmlns="http://www.w3.org/2000/svg" width="16.53" height="16.295" viewBox="0 0 16.53 16.295">
  <circle id="Ellipse_262" data-name="Ellipse 262" cx="1.5" cy="1.5" r="1.5" transform="translate(3.265 13.295)" fill="#fff"/>
  <circle id="Ellipse_263" data-name="Ellipse 263" cx="1.5" cy="1.5" r="1.5" transform="translate(10.265 13.295)" fill="#fff"/>
  <path id="Path_1025" data-name="Path 1025" d="M20.821,2.066H19.444V.689a.689.689,0,0,0-1.378,0V2.066H16.689a.689.689,0,1,0,0,1.378h1.378V4.821a.689.689,0,0,0,1.378,0V3.444h1.378a.689.689,0,0,0,0-1.378Z" transform="translate(-4.98 0)" fill="#fff"/>
  <path id="Path_1026" data-name="Path 1026" d="M14.995,6.7a.685.685,0,0,0-.8.555,2.066,2.066,0,0,1-2.033,1.7H3.732l-.647-5.51h5.87a.689.689,0,1,0,0-1.378H2.922l-.029-.242A2.066,2.066,0,0,0,.842,0H.689a.689.689,0,1,0,0,1.378H.842a.689.689,0,0,1,.684.608l.948,8.059a3.444,3.444,0,0,0,3.42,3.042h7.193a.689.689,0,0,0,0-1.378H5.894a2.066,2.066,0,0,1-1.949-1.378h8.216A3.444,3.444,0,0,0,15.551,7.5a.689.689,0,0,0-.556-.8Z" transform="translate(0)" fill="#fff"/>
</svg>
