<svg id="danger" xmlns="http://www.w3.org/2000/svg" width="74.199" height="63.69" viewBox="0 0 74.199 63.69">
  <path id="Path_22" data-name="Path 22" d="M35.5-475.539a6.709,6.709,0,0,0-2.973,1.755c-.58.595-4.031,6.221-16.067,26.174C8.039-433.616.991-421.856.788-421.45a6.685,6.685,0,0,0,3.625,9.092l.841.334H69.2l.841-.334a6.671,6.671,0,0,0,3.582-9.165c-.609-1.218-30.829-51.29-31.308-51.87a7.405,7.405,0,0,0-2.741-1.929A7.809,7.809,0,0,0,35.5-475.539Zm2.349,4.771a2.44,2.44,0,0,1,.769.537c.479.537,30.67,50.71,30.8,51.174a1.852,1.852,0,0,1-1.2,2.161c-.58.218-61.4.218-61.977,0a1.852,1.852,0,0,1-1.2-2.161c.131-.464,30.322-50.637,30.8-51.174a2.6,2.6,0,0,1,1.363-.74A2.366,2.366,0,0,1,37.853-470.768Z" transform="translate(-0.125 475.715)" fill="#e13c3c"/>
  <path id="Path_23" data-name="Path 23" d="M235.885-338.624a2.472,2.472,0,0,0-1.581,1.233c-.276.45-.3.725-.3,2.741,0,1.233.1,4.524.218,7.323s.276,6.264.334,7.715c.116,2.886.145,2.987,1.117,3.495a4.256,4.256,0,0,0,3.074-.087c.943-.493,1.015-.725,1.131-4.089.043-1.639.188-4.959.3-7.4.247-5.394.261-9.034.044-9.469A3.574,3.574,0,0,0,235.885-338.624Z" transform="translate(-200.086 358.681)" fill="#e13c3c"/>
  <path id="Path_24" data-name="Path 24" d="M235.61-158.364a3.434,3.434,0,0,0-2.19,4.887,3.274,3.274,0,0,0,4.263,1.61,3.254,3.254,0,0,0,2.088-3.176,3.2,3.2,0,0,0-1.03-2.494A3.654,3.654,0,0,0,235.61-158.364Z" transform="translate(-199.274 204.45)" fill="#e13c3c"/>
</svg>
