<svg id="Component_55_1" data-name="Component 55 – 1" xmlns="http://www.w3.org/2000/svg" width="26.522" height="22.092" viewBox="0 0 26.522 22.092">
  <path id="Path_105" data-name="Path 105" d="M747.916,1340.432c.082-.033.062-.117.082-.177a1.927,1.927,0,0,1,1.888-1.376q11.287,0,22.574,0a1.924,1.924,0,0,1,1.974,1.982,4.233,4.233,0,0,1-.038.877,1.918,1.918,0,0,1-1.82,1.551c-.1,0-.207,0-.311,0H750.1a1.945,1.945,0,0,1-2.151-1.536c0-.013-.025-.021-.038-.031Z" transform="translate(-747.916 -1321.201)" fill="#f5cb5c"/>
  <path id="Path_106" data-name="Path 106" d="M847.528,1087.909c0-.967,0-1.933,0-2.9a1.369,1.369,0,0,1,1.478-1.486q1.269,0,2.537,0a1.373,1.373,0,0,1,1.5,1.491c0,1.993,0,3.987-.005,5.98,0,.222.061.267.271.264.9-.012,1.795,0,2.693-.007a.828.828,0,0,1,.847.515.819.819,0,0,1-.216.945q-2.844,2.975-5.686,5.953a.827.827,0,0,1-1.326,0q-2.835-2.966-5.668-5.934a.84.84,0,0,1,.622-1.474c.915.006,1.829,0,2.744.006.174,0,.213-.05.212-.216C847.524,1090,847.528,1088.953,847.528,1087.909Z" transform="translate(-837.026 -1083.522)" fill="#f5cb5c"/>
</svg>
