<svg xmlns="http://www.w3.org/2000/svg" width="23.074" height="23.068" viewBox="0 0 23.074 23.068">
  <path id="Icon_ionic-ios-globe" data-name="Icon ionic-ios-globe" d="M14.909,3.375H14.87a11.534,11.534,0,0,0,.006,23.068h.039a11.534,11.534,0,1,0-.006-23.068ZM24.9,14.133H20.6a21.838,21.838,0,0,0-.543-4.225,16.893,16.893,0,0,0,2.756-1.164A9.935,9.935,0,0,1,24.9,14.133Zm-10.769,0H10.706a19.71,19.71,0,0,1,.488-3.832,16.871,16.871,0,0,0,2.939.394Zm0,1.553v3.432a16.942,16.942,0,0,0-2.939.394,19.708,19.708,0,0,1-.488-3.826Zm1.553,0h3.4a19.594,19.594,0,0,1-.488,3.821,16.552,16.552,0,0,0-2.911-.388Zm0-1.553V10.695a16.943,16.943,0,0,0,2.911-.388,19.652,19.652,0,0,1,.488,3.826Zm6.066-6.538a15.405,15.405,0,0,1-2.107.86,11.45,11.45,0,0,0-1.469-3.022A10.034,10.034,0,0,1,21.752,7.595ZM18.181,8.854a15.606,15.606,0,0,1-2.5.333V5.116A6.719,6.719,0,0,1,18.181,8.854Zm-4.048-3.76V9.181a15.337,15.337,0,0,1-2.523-.338A6.716,6.716,0,0,1,14.133,5.094ZM11.6,5.449a11.54,11.54,0,0,0-1.458,3,15.751,15.751,0,0,1-2.079-.854A9.884,9.884,0,0,1,11.6,5.449Zm-4.6,3.3A16.558,16.558,0,0,0,9.735,9.9a20.957,20.957,0,0,0-.543,4.225H4.922A9.884,9.884,0,0,1,7.007,8.748ZM4.917,15.685h4.27a21.781,21.781,0,0,0,.543,4.225A17.568,17.568,0,0,0,7,21.064,9.936,9.936,0,0,1,4.917,15.685Zm3.144,6.538a15.519,15.519,0,0,1,2.085-.854A11.581,11.581,0,0,0,11.6,24.375,10.13,10.13,0,0,1,8.061,22.223ZM11.61,20.97a15.417,15.417,0,0,1,2.523-.338v4.092A6.706,6.706,0,0,1,11.61,20.97ZM15.685,24.7V20.626a15.606,15.606,0,0,1,2.5.333A6.716,6.716,0,0,1,15.685,24.7Zm2.5-.316a11.45,11.45,0,0,0,1.469-3.022,15.151,15.151,0,0,1,2.107.865A10.15,10.15,0,0,1,18.181,24.386Zm4.63-3.316a16.893,16.893,0,0,0-2.756-1.164,21.724,21.724,0,0,0,.543-4.22h4.3A9.891,9.891,0,0,1,22.811,21.07Z" transform="translate(-3.375 -3.375)" fill="#666"/>
</svg>
