<svg id="Component_44_23" data-name="Component 44 – 23" xmlns="http://www.w3.org/2000/svg" width="25" height="25" viewBox="0 0 25 25">
  <path id="Subtraction_2" data-name="Subtraction 2" d="M12.5,25A12.5,12.5,0,0,1,3.661,3.661,12.5,12.5,0,0,1,21.339,21.339,12.418,12.418,0,0,1,12.5,25Zm0-20.148c-2.113,0-2.354.011-3.153.046a5.681,5.681,0,0,0-1.857.356A3.91,3.91,0,0,0,5.254,7.491,5.657,5.657,0,0,0,4.9,9.347c-.038.817-.046,1.063-.046,3.153,0,2.113.011,2.354.046,3.153a5.682,5.682,0,0,0,.356,1.857,3.91,3.91,0,0,0,2.237,2.236,5.685,5.685,0,0,0,1.857.355c.8.038,1.041.046,3.153.046,2.06,0,2.332-.009,3.153-.046a5.685,5.685,0,0,0,1.857-.355,3.91,3.91,0,0,0,2.236-2.236,5.685,5.685,0,0,0,.355-1.857c.038-.8.046-1.041.046-3.153,0-2.06-.009-2.332-.046-3.153a5.676,5.676,0,0,0-.355-1.857A3.91,3.91,0,0,0,17.51,5.254,5.659,5.659,0,0,0,15.653,4.9C14.836,4.86,14.59,4.852,12.5,4.852ZM12.481,18.77c-2.022,0-2.268-.008-3.1-.047a4.322,4.322,0,0,1-1.425-.268,2.361,2.361,0,0,1-.879-.573A2.329,2.329,0,0,1,6.507,17a4.322,4.322,0,0,1-.268-1.425v-.033C6.21,14.762,6.2,14.5,6.2,12.49s.009-2.272.037-3.062V9.392a4.334,4.334,0,0,1,.268-1.424A2.539,2.539,0,0,1,7.96,6.516a4.244,4.244,0,0,1,1.415-.268h.017c.806-.029,1.049-.037,3.08-.037l.029.019c2.057,0,2.3.01,3.091.045a4.22,4.22,0,0,1,1.419.265,2.383,2.383,0,0,1,.881.571,2.352,2.352,0,0,1,.571.879,4.24,4.24,0,0,1,.264,1.419c.036.816.044,1.06.044,3.092s-.008,2.267-.047,3.091a4.286,4.286,0,0,1-.268,1.419,2.441,2.441,0,0,1-.573.881,2.366,2.366,0,0,1-.879.571,4.276,4.276,0,0,1-1.425.264C14.757,18.762,14.512,18.77,12.481,18.77Zm.019-10.2A3.927,3.927,0,1,0,16.427,12.5,3.932,3.932,0,0,0,12.5,8.573ZM16.583,7.5a.918.918,0,1,0,.918.917A.919.919,0,0,0,16.583,7.5ZM12.5,15.049A2.549,2.549,0,1,1,15.049,12.5,2.552,2.552,0,0,1,12.5,15.049Z" transform="translate(0 0)" fill="#f5cb5c"/>
</svg>
