<svg xmlns="http://www.w3.org/2000/svg" width="110.447" height="41.2" viewBox="0 0 110.447 41.2">
  <g id="Group_16980" data-name="Group 16980" transform="translate(-39.31 -96.453)">
    <path id="Path_1331" data-name="Path 1331" d="M39.31,96.453H54.781c7.252,0,11.265,2.756,11.265,8.509v4.5c0,5.8-4.013,8.509-11.265,8.509h-6.43V132.59H39.31ZM48.351,115.5h4.3c2.852,0,4.3-1.354,4.3-4.593v-7.4c0-3.239-1.45-4.592-4.3-4.592h-4.3Z" fill="#fff"/>
    <rect id="Rectangle_1906" data-name="Rectangle 1906" width="4.52" height="26.736" transform="translate(39.31 137.653) rotate(-90)" fill="#fff"/>
    <g id="Group_16978" data-name="Group 16978" transform="translate(75.781 96.453)">
      <path id="Path_1332" data-name="Path 1332" d="M179.206,96.453h1.933v.2h-.85v2.241h-.232V96.651h-.85Z" transform="translate(-112.942 -96.453)" fill="#fff"/>
      <path id="Path_1333" data-name="Path 1333" d="M182.141,96.453h.341l.843,2.138.841-2.138h.341v2.439h-.233V96.785h-.006l-.833,2.107h-.219l-.837-2.107h-.007v2.107h-.232Z" transform="translate(-113.722 -96.453)" fill="#fff"/>
      <path id="Path_1334" data-name="Path 1334" d="M88.973,96.486h7.4c3.468,0,5.387,1.317,5.387,4.068V102.7c0,2.774-1.919,4.069-5.387,4.069H93.3v7.05H88.973Zm4.322,9.107h2.058c1.364,0,2.057-.647,2.057-2.2V99.86c0-1.549-.693-2.2-2.057-2.2H93.3Z" transform="translate(-88.973 -96.462)" fill="#fff"/>
      <path id="Path_1335" data-name="Path 1335" d="M113,105.454v8.368H108.68V96.486h7.674c3.468,0,5.386,1.294,5.386,4.068v.509c0,2.08-1.2,3.305-3.49,3.768,2.312.462,3.49,1.71,3.49,3.837v5.155h-4.322v-6.2c0-1.525-.693-2.173-2.057-2.173Zm0-1.2h2.312c1.363,0,2.057-.648,2.057-2.173V99.86c0-1.549-.694-2.2-2.057-2.2H113Z" transform="translate(-94.208 -96.462)" fill="#fff"/>
      <path id="Path_1336" data-name="Path 1336" d="M129.2,113.822V96.486h4.323v17.336Z" transform="translate(-99.66 -96.462)" fill="#fff"/>
      <path id="Path_1337" data-name="Path 1337" d="M139.462,113.822h-1.318V96.486h4.485l3.722,12.112,3.791-12.112h4.322v17.336h-4.322v-13.06l-3.93,13.06h-2.82l-3.93-13.36Z" transform="translate(-102.034 -96.462)" fill="#fff"/>
      <path id="Path_1338" data-name="Path 1338" d="M163.391,96.486H173.77v1.179h-6.056v6.611h5.547v1.179h-5.547v7.167h6.056v1.2H163.391Z" transform="translate(-108.741 -96.462)" fill="#fff"/>
    </g>
    <g id="Group_16979" data-name="Group 16979" transform="translate(75.781 119.854)">
      <path id="Path_1339" data-name="Path 1339" d="M88.973,128.634H93.3v16.135h6.149v1.2H88.973Z" transform="translate(-88.973 -128.402)" fill="#fff"/>
      <path id="Path_1340" data-name="Path 1340" d="M105.374,128.634h10.379v1.179H109.7v6.611h5.547V137.6H109.7v7.167h6.056v1.2H105.374Z" transform="translate(-93.33 -128.402)" fill="#fff"/>
      <path id="Path_1341" data-name="Path 1341" d="M125.475,145.97l-4.392-17.336h4.461l3.467,13.915,3.559-13.915h1.295l-4.508,17.336Z" transform="translate(-97.502 -128.402)" fill="#fff"/>
      <path id="Path_1342" data-name="Path 1342" d="M140.474,128.634h10.379v1.179H144.8v6.611h5.548V137.6H144.8v7.167h6.056v1.2H140.474Z" transform="translate(-102.653 -128.402)" fill="#fff"/>
      <path id="Path_1343" data-name="Path 1343" d="M157.221,128.634h4.323v16.135h6.148v1.2H157.221Z" transform="translate(-107.102 -128.402)" fill="#fff"/>
      <path id="Path_1344" data-name="Path 1344" d="M180.578,133.727V131.67a2.173,2.173,0,1,0-4.346,0v.554c0,1.364.416,1.965,2.034,2.542l2.774.9c2.865.9,3.976,2.451,3.976,5.04v.532c0,3.1-2.266,4.877-6.288,4.877h-.6c-4.092,0-6.08-1.619-6.08-4.392V140.5h4.138v2.266c0,1.433.67,2.173,2.288,2.173,1.549,0,2.358-.67,2.358-2.1v-.786c0-1.364-.416-1.988-2.034-2.566l-2.5-.856c-2.867-.9-3.976-2.381-3.976-5.062v-.324c0-3.144,2.149-4.924,6.217-4.924h.3c3.814,0,5.8,1.619,5.8,4.392v1.017Z" transform="translate(-111.041 -128.318)" fill="#fff"/>
    </g>
  </g>
</svg>