<svg id="Group_5" data-name="Group 5" xmlns="http://www.w3.org/2000/svg" width="118.109" height="16.446" viewBox="0 0 118.109 16.446">
  <path id="Icon_ionic-ios-star" data-name="Icon ionic-ios-star" d="M19.289,9.068H13.474L11.706,3.794a.64.64,0,0,0-1.2,0L8.737,9.068H2.883A.634.634,0,0,0,2.25,9.7a.465.465,0,0,0,.012.107.608.608,0,0,0,.265.447l4.78,3.368L5.472,18.955a.634.634,0,0,0,.217.712.612.612,0,0,0,.356.154.775.775,0,0,0,.4-.142l4.665-3.325,4.665,3.325a.741.741,0,0,0,.4.142.568.568,0,0,0,.352-.154.627.627,0,0,0,.217-.712L14.9,13.622l4.74-3.4.115-.1a.6.6,0,0,0-.466-1.056Z" transform="translate(-2.25 -3.375)" fill="#f5db2f"/>
  <path id="Icon_ionic-ios-star-2" data-name="Icon ionic-ios-star" d="M19.289,9.068H13.474L11.706,3.794a.64.64,0,0,0-1.2,0L8.737,9.068H2.883A.634.634,0,0,0,2.25,9.7a.465.465,0,0,0,.012.107.608.608,0,0,0,.265.447l4.78,3.368L5.472,18.955a.634.634,0,0,0,.217.712.612.612,0,0,0,.356.154.775.775,0,0,0,.4-.142l4.665-3.325,4.665,3.325a.741.741,0,0,0,.4.142.568.568,0,0,0,.352-.154.627.627,0,0,0,.217-.712L14.9,13.622l4.74-3.4.115-.1a.6.6,0,0,0-.466-1.056Z" transform="translate(22.849 -3.375)" fill="#f5db2f"/>
  <path id="Icon_ionic-ios-star-3" data-name="Icon ionic-ios-star" d="M19.289,9.068H13.474L11.706,3.794a.64.64,0,0,0-1.2,0L8.737,9.068H2.883A.634.634,0,0,0,2.25,9.7a.465.465,0,0,0,.012.107.608.608,0,0,0,.265.447l4.78,3.368L5.472,18.955a.634.634,0,0,0,.217.712.612.612,0,0,0,.356.154.775.775,0,0,0,.4-.142l4.665-3.325,4.665,3.325a.741.741,0,0,0,.4.142.568.568,0,0,0,.352-.154.627.627,0,0,0,.217-.712L14.9,13.622l4.74-3.4.115-.1a.6.6,0,0,0-.466-1.056Z" transform="translate(47.949 -3.375)" fill="#f5db2f"/>
  <path id="Icon_ionic-ios-star-4" data-name="Icon ionic-ios-star" d="M19.289,9.068H13.474L11.706,3.794a.64.64,0,0,0-1.2,0L8.737,9.068H2.883A.634.634,0,0,0,2.25,9.7a.465.465,0,0,0,.012.107.608.608,0,0,0,.265.447l4.78,3.368L5.472,18.955a.634.634,0,0,0,.217.712.612.612,0,0,0,.356.154.775.775,0,0,0,.4-.142l4.665-3.325,4.665,3.325a.741.741,0,0,0,.4.142.568.568,0,0,0,.352-.154.627.627,0,0,0,.217-.712L14.9,13.622l4.74-3.4.115-.1a.6.6,0,0,0-.466-1.056Z" transform="translate(73.049 -3.375)" fill="#f5db2f"/>
  <path id="Icon_ionic-ios-star-half" data-name="Icon ionic-ios-star-half" d="M19.289,9.068H13.474L11.706,3.794a.64.64,0,0,0-1.2,0L8.737,9.068H2.883A.634.634,0,0,0,2.25,9.7a.465.465,0,0,0,.012.107.608.608,0,0,0,.265.447l4.78,3.368L5.472,18.955a.634.634,0,0,0,.217.712.612.612,0,0,0,.356.154.775.775,0,0,0,.4-.142l4.665-3.325,4.665,3.325a.741.741,0,0,0,.4.142.568.568,0,0,0,.352-.154.627.627,0,0,0,.217-.712L14.9,13.622l4.74-3.4.115-.1a.6.6,0,0,0-.466-1.056Zm-1.874,1.392L14.26,12.725a1.11,1.11,0,0,0-.4,1.257l1.19,3.467a.159.159,0,0,1-.241.182l-3.06-2.182,0,0a1.474,1.474,0,0,1-.636-1.206V5.957a.077.077,0,0,1,.15-.024h0l1.17,3.487a1.105,1.105,0,0,0,1.048.755H17.32A.158.158,0,0,1,17.415,10.459Z" transform="translate(98.148 -3.375)" fill="#f5db2f"/>
</svg>
