<svg id="Component_43_23" data-name="Component 43 – 23" xmlns="http://www.w3.org/2000/svg" width="25" height="25" viewBox="0 0 25 25">
  <circle id="Ellipse_8" data-name="Ellipse 8" cx="12.5" cy="12.5" r="12.5" fill="#f5cb5c"/>
  <g id="Group_290" data-name="Group 290" transform="translate(4.199 3.676)">
    <path id="Path_10" data-name="Path 10" d="M126.392,124.646l1.193-4.458a8.24,8.24,0,1,1,3.282,3.257Zm4.7-2.871.282.169a6.7,6.7,0,1,0-2.288-2.271l.173.284-.666,2.489Z" transform="translate(-126.392 -107.978)" fill="#fff"/>
    <path id="Path_11" data-name="Path 11" d="M138.069,117.537a1.408,1.408,0,0,0-1.2-.271c-.312.127-.511.615-.714.865a.3.3,0,0,1-.386.084,5.44,5.44,0,0,1-2.714-2.325.332.332,0,0,1,.043-.454,1.827,1.827,0,0,0,.492-.8,1.753,1.753,0,0,0-.22-.947,2.246,2.246,0,0,0-.7-1.054.96.96,0,0,0-1.041.155,2.113,2.113,0,0,0-.732,1.674,2.367,2.367,0,0,0,.066.531,4.413,4.413,0,0,0,.509,1.175,9.254,9.254,0,0,0,.532.809,8.21,8.21,0,0,0,2.307,2.142,7,7,0,0,0,1.44.685,3.213,3.213,0,0,0,1.675.265,2.03,2.03,0,0,0,1.518-1.13.983.983,0,0,0,.071-.577C138.928,117.965,138.39,117.728,138.069,117.537Z" transform="translate(-126.622 -108.062)" fill="#fff" fill-rule="evenodd"/>
  </g>
</svg>
