<svg id="Delete" xmlns="http://www.w3.org/2000/svg" width="16.767" height="18.444" viewBox="0 0 16.767 18.444">
  <path id="Path_8" data-name="Path 8" d="M17.929,6.677H2.838A.838.838,0,1,1,2.838,5H17.929a.838.838,0,0,1,0,1.677Z" transform="translate(-2 -1.646)" fill="#fff"/>
  <path id="Path_9" data-name="Path 9" d="M14.9,19.444H6.515A2.518,2.518,0,0,1,4,16.929V5.192A.838.838,0,0,1,5.431,4.6L17.414,6.03v10.9c.157.157,0-.222,0,0A2.518,2.518,0,0,1,14.9,19.444ZM15.684,6.03H5.677v10.9s.376.838.838.838H14.9a.84.84,0,0,0,.785-.544Zm-1.624,0a.838.838,0,0,1-.838-.838V3.515a.839.839,0,0,0-.838-.838H9.03a.839.839,0,0,0-.838.838V5.192c0,.463-.838.838-.838.838s-.838-.375-.838-.838V3.515A2.518,2.518,0,0,1,9.03,1h3.353A2.518,2.518,0,0,1,14.9,3.515V5.192A.838.838,0,0,1,14.06,6.03Z" transform="translate(-2.323 -1)" fill="#fff"/>
</svg>
