<svg id="Edit_icon" data-name="Edit icon" xmlns="http://www.w3.org/2000/svg" width="18.442" height="18.443" viewBox="0 0 18.442 18.443">
  <path id="Path_8" data-name="Path 8" d="M15.173,19.675H3.5a2.5,2.5,0,0,1-2.5-2.5V5.5A2.5,2.5,0,0,1,3.5,3H9.337a.834.834,0,1,1,0,1.667H3.5a.835.835,0,0,0-.834.834V17.174a.835.835,0,0,0,.834.834H15.173a.835.835,0,0,0,.834-.834V11.337a.834.834,0,1,1,1.667,0v5.836A2.5,2.5,0,0,1,15.173,19.675Z" transform="translate(-1 -1.231)" fill="#fff"/>
  <path id="Path_9" data-name="Path 9" d="M17.839.879a2.6,2.6,0,0,1,1.84,4.442l-7.92,7.92a.834.834,0,0,1-.387.219l-3.335.834a.834.834,0,0,1-1.011-1.011l.834-3.335a.834.834,0,0,1,.219-.387L16,1.641A2.585,2.585,0,0,1,17.839.879ZM10.742,11.9,18.5,4.142A.935.935,0,1,0,17.177,2.82L9.42,10.577,8.98,12.34Z" transform="translate(-1.998 -0.879)" fill="#fff"/>
</svg>
