<svg id="Icon_ionic-ios-star" data-name="Icon ionic-ios-star" xmlns="http://www.w3.org/2000/svg" width="20.461" height="19" viewBox="0 0 20.461 19">
  <path id="Icon_ionic-ios-star-2" data-name="Icon ionic-ios-star" d="M21.935,9.952H15.216L13.175,3.859a.74.74,0,0,0-1.388,0L9.745,9.952H2.981a.733.733,0,0,0-.731.731.537.537,0,0,0,.014.123.7.7,0,0,0,.306.516l5.522,3.891L5.972,21.375a.733.733,0,0,0,.251.822.707.707,0,0,0,.411.178.9.9,0,0,0,.457-.164l5.389-3.841L17.87,22.21a.856.856,0,0,0,.457.164.656.656,0,0,0,.406-.178.724.724,0,0,0,.251-.822l-2.119-6.161,5.476-3.928.132-.114a.766.766,0,0,0,.237-.489A.773.773,0,0,0,21.935,9.952Z" transform="translate(-2.25 -3.375)" fill="#ffc641"/>
</svg>
