<svg id="Rejected" xmlns="http://www.w3.org/2000/svg" width="20" height="20" viewBox="0 0 20 20">
  <circle id="Ellipse_217" data-name="Ellipse 217" cx="10" cy="10" r="10" fill="#f24141"/>
  <path id="Icon_metro-cross" data-name="Icon metro-cross" d="M10.523,8.376h0L8.088,5.941l2.435-2.435h0a.251.251,0,0,0,0-.355L9.373,2a.251.251,0,0,0-.355,0h0L6.584,4.436,4.149,2h0a.251.251,0,0,0-.355,0l-1.15,1.15a.251.251,0,0,0,0,.355h0L5.079,5.941,2.644,8.376h0a.251.251,0,0,0,0,.355l1.15,1.15a.251.251,0,0,0,.355,0h0L6.584,7.446,9.018,9.88h0a.251.251,0,0,0,.355,0l1.15-1.15a.251.251,0,0,0,0-.355Z" transform="translate(3.416 4.059)" fill="#fff"/>
</svg>
