<svg id="shopping-cart-add_1_" data-name="shopping-cart-add (1)" xmlns="http://www.w3.org/2000/svg" width="16.571" height="16.705" viewBox="0 0 16.571 16.705">
  <circle id="Ellipse_286" data-name="Ellipse 286" cx="1.5" cy="1.5" r="1.5" transform="translate(3.163 13.705)" fill="#fff"/>
  <circle id="Ellipse_287" data-name="Ellipse 287" cx="1.5" cy="1.5" r="1.5" transform="translate(10.543 13.705)" fill="#fff"/>
  <path id="Path_1324" data-name="Path 1324" d="M20.629,1.984H19.307V.661a.661.661,0,0,0-1.323,0V1.984H16.661a.661.661,0,1,0,0,1.323h1.323V4.629a.661.661,0,0,0,1.323,0V3.307h1.323a.661.661,0,1,0,0-1.323Z" transform="translate(-4.719)" fill="#fff"/>
  <path id="Path_1325" data-name="Path 1325" d="M15.072,6.432a.714.714,0,0,0-.519.106.655.655,0,0,0-.286.427A2.053,2.053,0,0,1,12.224,8.6H3.751L3.1,3.307H9a.677.677,0,0,0,.692-.661A.677.677,0,0,0,9,1.984H2.937l-.029-.233A2.046,2.046,0,0,0,.846,0H.692A.677.677,0,0,0,0,.661a.677.677,0,0,0,.692.661H.846a.682.682,0,0,1,.687.584l.953,7.738a3.41,3.41,0,0,0,3.438,2.921h7.23a.662.662,0,1,0,0-1.323H5.924A2.074,2.074,0,0,1,3.965,9.92h8.258A3.422,3.422,0,0,0,15.631,7.2a.664.664,0,0,0-.559-.768Z" fill="#fff"/>
</svg>
